<svg xmlns="http://www.w3.org/2000/svg" viewBox="0 0 512.39 512.38"><defs><style>.cls-1{fill:#4b77be;}.cls-2{fill:#3f4320;}.cls-3{fill:#eaeaea;}</style></defs><title>bagagekluizen</title><g id="Layer_2" data-name="Layer 2"><g id="Layer_1-2" data-name="Layer 1"><path class="cls-1" d="M512,256c6.64,139.75-71.38,245.33-256,256C114.85,520.16,0,397.38,0,256S114.61,0,256,0,505.29,114.77,512,256Z"/><rect class="cls-2" x="114.35" y="124.18" width="88.44" height="254.74" rx="7"/><rect class="cls-3" x="138.38" y="150.13" width="40.37" height="9.61" rx="3.91"/><rect class="cls-3" x="138.38" y="170.96" width="40.37" height="9.61" rx="3.91"/><rect class="cls-3" x="138.38" y="191.79" width="40.37" height="9.61" rx="3.91"/><circle class="cls-3" cx="181.35" cy="262.64" r="6.93"/><rect class="cls-2" x="215.29" y="124.18" width="88.44" height="254.74" rx="7"/><rect class="cls-3" x="239.32" y="150.13" width="40.37" height="9.61" rx="3.91"/><rect class="cls-3" x="239.32" y="170.96" width="40.37" height="9.61" rx="3.91"/><rect class="cls-3" x="239.32" y="191.79" width="40.37" height="9.61" rx="3.91"/><circle class="cls-3" cx="281.46" cy="262.64" r="6.93"/><rect class="cls-2" x="316.23" y="124.18" width="88.44" height="254.74" rx="7"/><rect class="cls-3" x="340.26" y="150.13" width="40.37" height="9.61" rx="3.91"/><rect class="cls-3" x="340.26" y="170.96" width="40.37" height="9.61" rx="3.91"/><rect class="cls-3" x="340.26" y="191.79" width="40.37" height="9.61" rx="3.91"/><circle class="cls-3" cx="381.57" cy="262.64" r="6.93"/></g></g></svg>