<svg xmlns="http://www.w3.org/2000/svg" viewBox="0 0 512 512"><defs><style>.cls-1{fill:#ffc312;}.cls-2{fill:#efefef;}.cls-3{fill:#333;}.cls-4{fill:#fff;}.cls-5{fill:#b5b5b5;}.cls-6{fill:#3f4320;}.cls-7{fill:#60422e;}.cls-8{fill:#ed2082;}.cls-9{fill:#7c7c7c;}.cls-10{fill:#61c62c;}</style></defs><title>check_in</title><g id="Layer_2" data-name="Layer 2"><g id="Layer_1-2" data-name="Layer 1"><circle class="cls-1" cx="256" cy="256" r="256"/><polygon class="cls-2" points="98.7 221.06 91.27 293.5 91.27 294.98 96.32 367.48 188.33 385.2 188.33 294.98 188.33 293.5 188.33 201.45 98.7 221.06"/><path class="cls-2" d="M195.83,397.05l-91.7-19.93A29.69,29.69,0,0,1,83.83,349v-111a29.67,29.67,0,0,1,20.3-28.16L196.87,193Zm-81.17-32.11,66.23,13.61V209.93l-66.23,12a23.33,23.33,0,0,0-16,22.14V342.8A23.32,23.32,0,0,0,114.66,364.94Z"/><path class="cls-3" d="M213,124.22h83.14a15,15,0,0,1,15,15v295.5a16,16,0,0,1-16,16H194a16,16,0,0,1-16-16V159.22A35,35,0,0,1,213,124.22Z"/><rect class="cls-4" x="220.21" y="155.94" width="46.75" height="44.52" rx="12.09"/><path class="cls-4" d="M374.76,109.36V97.65a8.13,8.13,0,0,0-8.11-8.11H259.43a8.12,8.12,0,0,0-8.11,8.11v11.71Z"/><path class="cls-5" d="M251.32,108.46V167a8.13,8.13,0,0,0,8.11,8.11H366.65a8.13,8.13,0,0,0,8.11-8.11V108.46Z"/><rect class="cls-6" x="259.43" y="149.91" width="109.03" height="9.01" rx="2"/><rect class="cls-7" x="258.52" y="117.47" width="57.67" height="4.51" rx="1.83"/><rect class="cls-7" x="258.52" y="127.38" width="57.67" height="4.51" rx="1.83"/><rect class="cls-8" x="258.52" y="97.65" width="16.22" height="7.21"/><rect class="cls-9" x="279.25" y="97.65" width="46.86" height="7.21"/><circle class="cls-4" cx="243.58" cy="287.46" r="45.43"/><polygon class="cls-10" points="267.94 267.15 236.52 284.81 228.05 269.73 228.05 269.73 214.99 303.53 250.65 309.94 250.65 309.94 241.09 292.93 272.5 275.27 267.94 267.15"/></g></g></svg>