<svg xmlns="http://www.w3.org/2000/svg" viewBox="0 0 512 512"><defs><style>.cls-1{fill:#4b77be;}.cls-2{fill:#eaeaea;}.cls-3{fill:#3f4320;}</style></defs><title>fiets</title><g id="Layer_2" data-name="Layer 2"><g id="Layer_1-2" data-name="Layer 1"><circle class="cls-1" cx="256" cy="256" r="256"/><path class="cls-2" d="M133.85,359.47a70.33,70.33,0,1,1,49.75-20.6A69.87,69.87,0,0,1,133.85,359.47Zm0-126.64a56.3,56.3,0,1,0,56.3,56.3A56.36,56.36,0,0,0,133.85,232.83Z"/><circle class="cls-3" cx="288.72" cy="317.47" r="11.88"/><rect class="cls-3" x="278.25" y="284.63" width="7.15" height="28.72" transform="translate(-63.26 75.96) rotate(-13.82)"/><path class="cls-2" d="M386.8,363.2a70.35,70.35,0,1,1,49.75-20.61A69.88,69.88,0,0,1,386.8,363.2Zm0-126.65a56.3,56.3,0,1,0,56.3,56.3A56.36,56.36,0,0,0,386.8,236.55Z"/><circle class="cls-3" cx="386.8" cy="289.13" r="9.86"/><path class="cls-3" d="M288.72,325.43a8,8,0,0,1-7.85-9.3l21.55-126.67a8,8,0,0,1,14.14-3.55l76.53,98.33A8,8,0,0,1,389,296.78l-98.08,28.34A8,8,0,0,1,288.72,325.43ZM315.09,210,298.7,306.3l74.6-21.56Z"/><rect class="cls-2" x="268.78" y="281.71" width="18.8" height="4.95" transform="translate(-45.69 53.42) rotate(-10.14)"/><path class="cls-3" d="M288.72,325.43a7.93,7.93,0,0,1-5.46-2.17L165,211.77a8,8,0,0,1,10.92-11.59l107.49,101.3,22.25-130.73a8,8,0,1,1,15.7,2.67L296.57,318.8a8,8,0,0,1-7.85,6.63Z"/><path class="cls-2" d="M184.7,152.1a9.38,9.38,0,0,0-.43-5.49,8.09,8.09,0,0,0-3.45-4l-20.27-11.07,3,11.54,8.72-20.44,1.24-2.91-7.28,4.17,30.67.53,4.31.08c4.41.07,8.63-3.94,8.43-8.43a8.59,8.59,0,0,0-8.43-8.43l-30.67-.53-4.31-.08c-2.67,0-6.17,1.58-7.28,4.18l-8.72,20.44L149,134.54c-.89,2.07-1.59,4.21-.85,6.49a8.63,8.63,0,0,0,3.87,5l15.31,8.36"/><path class="cls-3" d="M167.35,154.43c-1.64,10.18-2.21,13.55-3.28,23.81-1.41,13.54-2.61,27.09-4.15,40.61q-1.41,12.43-3.07,24.82l.3-2.24A47.92,47.92,0,0,1,154,253.37l.85-2a57.54,57.54,0,0,1-4.91,9.11c-1,1.47-2,2.86-3.06,4.29,1.63-2.31-.14.17-.6.73-.62.74-1.24,1.48-1.87,2.21-4.75,5.47-10,10.48-15.25,15.47-3.2,3-3.3,8.89,0,11.92a8.6,8.6,0,0,0,11.92,0h0c12.51-11.91,25.67-24.67,30.78-41.69,1.48-4.93,1.9-10.12,2.56-15.21s1.27-10.05,1.86-15.08q1.71-14.62,3.12-29.27c.8-8.17,1.48-16.36,2.57-24.5l-.3,2.24c.87-6.51,2-13,3-19.48"/><path class="cls-2" d="M276.85,154.72h59.83S330.52,189.41,276.85,154.72Z"/><path class="cls-2" d="M316.22,178.1a46.59,46.59,0,0,1-10.35-1.24c-9.64-2.18-20.86-7.38-33.35-15.45a8,8,0,0,1,4.33-14.65h59.83a8,8,0,0,1,7.84,9.35,27.63,27.63,0,0,1-15.7,19.52A31.2,31.2,0,0,1,316.22,178.1Z"/><circle class="cls-3" cx="133.85" cy="289.13" r="9.86"/><rect class="cls-3" x="232.88" y="112.69" width="15.92" height="154.8" transform="translate(48.31 428.98) rotate(-89.42)"/><rect class="cls-3" x="286.91" y="319.85" width="7.15" height="28.72" transform="translate(-71.42 79.05) rotate(-13.82)"/><rect class="cls-2" x="284.27" y="344.68" width="18.8" height="4.95" transform="translate(-56.54 57.13) rotate(-10.14)"/></g></g></svg>