<svg xmlns="http://www.w3.org/2000/svg" viewBox="0 0 512 512"><defs><style>.cls-1{fill:#424242;}.cls-2{fill:#686868;}.cls-3{fill:#ededed;}.cls-4,.cls-5{fill:#f58320;}.cls-5{font-size:27.09px;font-family:Roboto-Bold, Roboto;font-weight:700;}.cls-6{fill:#7a431a;}.cls-7{fill:#cc9233;}.cls-8{fill:#ce4525;}.cls-9{fill:#2e934a;}.cls-10{fill:#fff;}</style></defs><title>food</title><g id="Layer_2" data-name="Layer 2"><g id="Layer_1-2" data-name="Layer 1"><circle class="cls-1" cx="256" cy="256" r="256"/><path class="cls-2" d="M256.25,182.28,235.32,72.09l-53.7-4.73V51.93l61.11,6.39A10.73,10.73,0,0,1,252.16,67l23,120.27Z"/><polygon class="cls-3" points="315.7 156.91 282.81 156.91 220.18 156.91 241.07 404.66 282.81 404.66 315.7 404.66 357.43 404.66 378.33 156.91 315.7 156.91"/><rect class="cls-4" x="210.2" y="147.95" width="178.38" height="17.91" rx="7.73"/><text class="cls-5" transform="translate(256 232.4)">DRINK</text><rect class="cls-6" x="115.99" y="347.41" width="188.43" height="20.89" rx="9.01"/><path class="cls-7" d="M128.11,375.05H294.53a6.94,6.94,0,0,1,6.94,6.94v4.07a18.65,18.65,0,0,1-18.65,18.65h-143a18.65,18.65,0,0,1-18.65-18.65V382a6.94,6.94,0,0,1,6.94-6.94Z"/><rect class="cls-8" x="129.26" y="340.75" width="81.01" height="10.81" rx="4.66"/><rect class="cls-8" x="209.72" y="340.75" width="80.22" height="10.81" rx="4.66"/><rect class="cls-9" x="124.94" y="368.31" width="169.55" height="6.75" rx="2.91"/><path class="cls-7" d="M289.32,345.87a11.91,11.91,0,0,0,11.35-15.53c-12-37.48-47.44-69.29-89.35-69.29S133.93,292.86,122,330.34a11.91,11.91,0,0,0,11.34,15.53Z"/><circle class="cls-10" cx="152" cy="305.89" r="2.43"/><circle class="cls-10" cx="256" cy="323.88" r="2.43"/><circle class="cls-10" cx="238.09" cy="289.37" r="2.43"/><circle class="cls-10" cx="178.02" cy="333.4" r="2.43"/><circle class="cls-10" cx="201.9" cy="310.74" r="2.43"/><circle class="cls-10" cx="197.05" cy="284.52" r="2.43"/><circle class="cls-10" cx="258.43" cy="308.31" r="2.43"/><circle class="cls-10" cx="226.15" cy="330.97" r="2.43"/><circle class="cls-10" cx="232.59" cy="308.31" r="2.43"/><circle class="cls-10" cx="170.18" cy="316.61" r="2.43"/><circle class="cls-10" cx="279.51" cy="328.55" r="2.43"/><circle class="cls-10" cx="178.02" cy="291.8" r="2.43"/><circle class="cls-10" cx="213.75" cy="294.22" r="2.43"/><circle class="cls-10" cx="147.14" cy="328.55" r="2.43"/><circle class="cls-10" cx="218.6" cy="279.67" r="2.43"/><circle class="cls-10" cx="202.08" cy="328.55" r="2.43"/></g></g></svg>