<svg xmlns="http://www.w3.org/2000/svg" viewBox="0 0 512 512"><defs><style>.cls-1{fill:#4b77be;}.cls-2{fill:#3f4320;stroke:#eaeaea;stroke-miterlimit:10;stroke-width:16px;}.cls-3{fill:#eaeaea;}</style></defs><title>geldautomaat_1</title><g id="Layer_2" data-name="Layer 2"><g id="Layer_1-2" data-name="Layer 1"><circle class="cls-1" cx="256" cy="256" r="256"/><circle class="cls-2" cx="256.65" cy="253.42" r="166.86"/><path class="cls-3" d="M303.29,313.37A61.77,61.77,0,0,1,275,320.21c-35.43,0-64.25-30-64.25-66.79s28.82-66.79,64.25-66.79a61.77,61.77,0,0,1,23.16,4.51l8.43-21.91A83.55,83.55,0,0,0,275,163c-47.95,0-87,40.56-87,90.4s39,90.4,87,90.4a83.71,83.71,0,0,0,39.83-10.08Z"/><polygon class="cls-3" points="286.44 238.55 165.15 238.55 169.73 220.24 291.02 220.24 286.44 238.55"/><polygon class="cls-3" points="281.86 277.45 160.57 277.45 165.15 259.14 286.44 259.14 281.86 277.45"/></g></g></svg>