<svg xmlns="http://www.w3.org/2000/svg" viewBox="0 0 512 512"><defs><style>.cls-1{fill:#4b77be;}.cls-2{fill:#3f4320;}.cls-3{fill:none;stroke:#d1d1d1;stroke-miterlimit:10;stroke-width:5px;}</style></defs><title>blind</title><g id="Layer_2" data-name="Layer 2"><g id="Layer_1-2" data-name="Layer 1"><circle class="cls-1" cx="256" cy="256" r="256"/><circle class="cls-2" cx="262.13" cy="110.24" r="41.74"/><path class="cls-2" d="M227,161.95h70.34A14.66,14.66,0,0,1,312,176.61V306.68a11,11,0,0,1-11,11H223.3a11,11,0,0,1-11-11V176.61A14.66,14.66,0,0,1,227,161.95Z"/><path class="cls-2" d="M235.35,246.11h54.82a10,10,0,0,1,10,10V394.85a7,7,0,0,1-7,7H232.38a7,7,0,0,1-7-7V256.08a10,10,0,0,1,10-10Z"/><rect class="cls-2" x="173.82" y="168.17" width="28.84" height="130.62" rx="14.42" transform="translate(108.05 -55.51) rotate(23.37)"/><line class="cls-3" x1="163.01" y1="289.94" x2="114.26" y2="401.85"/><rect class="cls-2" x="315.23" y="170.97" width="28.84" height="130.62" rx="14.42" transform="translate(-19.14 29.29) rotate(-4.94)"/><path class="cls-2" d="M196.37,178.85c8.54-20.17,29.14-16.84,29.14-16.84s-12.38,23.54-29.14,17.41"/><path class="cls-2" d="M300,162s26.12-3.55,37.06,15.31S295.16,162,295.16,162Z"/><rect class="cls-2" x="303.86" y="168.85" width="15.91" height="30.79"/></g></g></svg>