<svg xmlns="http://www.w3.org/2000/svg" viewBox="0 0 512 512"><defs><style>.cls-1{fill:#4b77be;}.cls-2{fill:#fff;}.cls-3{fill:#3f4320;}.cls-4{fill:#f4f4f4;}</style></defs><title>infoboard</title><g id="Layer_2" data-name="Layer 2"><g id="Layer_1-2" data-name="Layer 1"><circle class="cls-1" cx="256" cy="256" r="256"/><path class="cls-2" d="M398.69,162.57H155.77a2.65,2.65,0,0,1-2.65-2.65V146.41a2.64,2.64,0,0,0-2.64-2.64h-12a2.65,2.65,0,0,0-2.65,2.64V410a2.65,2.65,0,0,0,2.65,2.64h12a2.64,2.64,0,0,0,2.64-2.64V182.5a2.65,2.65,0,0,1,2.65-2.64H398.69a2.65,2.65,0,0,0,2.64-2.65v-12A2.64,2.64,0,0,0,398.69,162.57Z"/><rect class="cls-3" x="171.94" y="194.09" width="229.61" height="108.13" rx="3"/><circle class="cls-2" cx="221.71" cy="246.01" r="31.56"/><circle class="cls-1" cx="221.64" cy="246.08" r="25.31"/><rect class="cls-2" x="219.08" y="237.5" width="4.22" height="24.7"/><rect class="cls-2" x="218.92" y="229.21" width="4.22" height="5.72"/><rect class="cls-4" x="280.08" y="216.82" width="80.42" height="8.48"/><rect class="cls-4" x="280.08" y="234.47" width="80.42" height="8.48"/><rect class="cls-4" x="279.96" y="250.76" width="80.42" height="8.48"/></g></g></svg>