<svg xmlns="http://www.w3.org/2000/svg" viewBox="0 0 512 512"><defs><style>.cls-1{fill:#4b77be;}.cls-2{fill:#3f4320;}.cls-3{fill:#b7b7b6;}.cls-4{fill:#eaeaea;}</style></defs><title>lift</title><g id="Layer_2" data-name="Layer 2"><g id="Layer_1-2" data-name="Layer 1"><circle class="cls-1" cx="256" cy="256" r="256"/><path class="cls-2" d="M147.31,131.85H369.39a9,9,0,0,1,9,9V371.93a0,0,0,0,1,0,0H138.31a0,0,0,0,1,0,0V140.85A9,9,0,0,1,147.31,131.85Z"/><path class="cls-3" d="M177,166.54H337.23a7,7,0,0,1,7,7V371.93a0,0,0,0,1,0,0H170a0,0,0,0,1,0,0V173.54A7,7,0,0,1,177,166.54Z"/><rect class="cls-2" x="256" y="166.54" width="2.18" height="205.39"/><rect class="cls-4" x="358.49" y="197.54" width="49.67" height="118.93" rx="8"/><polygon class="cls-1" points="383.33 208.63 365.03 229.77 376.14 229.77 376.14 252.27 390.52 252.27 390.52 229.77 401.63 229.77 383.33 208.63"/><polygon class="cls-1" points="383.33 304.63 365.03 283.5 376.14 283.5 376.14 260.99 390.52 260.99 390.52 283.5 401.63 283.5 383.33 304.63"/><rect class="cls-4" x="210.08" y="140.17" width="84.31" height="15.57" rx="3"/><rect class="cls-2" x="138.31" y="368.45" width="240.08" height="9.39"/></g></g></svg>