<svg xmlns="http://www.w3.org/2000/svg" viewBox="0 0 512 512"><defs><style>.cls-1{fill:#ffc312;}.cls-2{fill:#fff;}.cls-3{fill:#b5b5b5;}.cls-4{fill:#3f4320;}.cls-5{fill:#60422e;}.cls-6{fill:#ed2082;}.cls-7{fill:#7c7c7c;}.cls-8{fill:#61c62c;}</style></defs><title>ov-kaart_machine</title><g id="Layer_2" data-name="Layer 2"><g id="Layer_1-2" data-name="Layer 1"><circle class="cls-1" cx="256" cy="256" r="256"/><path class="cls-2" d="M369.91,180.74v-23.5A16.32,16.32,0,0,0,353.64,141H138.5a16.32,16.32,0,0,0-16.27,16.27v23.5Z"/><path class="cls-3" d="M122.23,178.94V296.45a16.32,16.32,0,0,0,16.27,16.27H353.64a16.33,16.33,0,0,0,16.27-16.27V178.94Z"/><rect class="cls-4" x="138.5" y="262.1" width="218.75" height="18.08" rx="2"/><rect class="cls-5" x="136.69" y="197.01" width="115.7" height="9.04" rx="2"/><rect class="cls-5" x="136.69" y="216.9" width="115.7" height="9.04" rx="2"/><rect class="cls-6" x="136.69" y="157.24" width="32.54" height="14.46"/><rect class="cls-7" x="178.27" y="157.24" width="94.01" height="14.46"/><circle class="cls-2" cx="331.73" cy="286.28" r="84.75"/><path class="cls-8" d="M358,325a39.91,39.91,0,0,1-18.25,4.41c-22.86,0-41.46-19.33-41.46-43.09s18.6-43.09,41.46-43.09a39.84,39.84,0,0,1,14.94,2.91L360.09,232a54,54,0,0,0-20.38-4c-30.94,0-56.11,26.16-56.11,58.32s25.17,58.32,56.11,58.32a54,54,0,0,0,25.7-6.5Z"/><polygon class="cls-8" points="347.09 276.68 268.83 276.68 271.79 264.87 350.04 264.87 347.09 276.68"/><polygon class="cls-8" points="344.14 301.79 265.88 301.79 268.83 289.97 347.09 289.97 344.14 301.79"/></g></g></svg>