<svg xmlns="http://www.w3.org/2000/svg" viewBox="0 0 512 512"><defs><style>.cls-1{fill:#f58320;}.cls-2{fill:#3f4320;}.cls-3{fill:none;stroke:#eaeaea;stroke-miterlimit:10;stroke-width:6px;}.cls-4{fill:#eaeaea;}</style></defs><title>pasfotostudio</title><g id="Layer_2" data-name="Layer 2"><g id="Layer_1-2" data-name="Layer 1"><circle class="cls-1" cx="256" cy="256" r="256"/><rect class="cls-2" x="75.39" y="168.25" width="240.27" height="163.69" rx="13"/><path class="cls-2" d="M224.64,203.38H169.2c-7.73,0-18-5.16-18-12.39L154,163.17c0-7.23,7.52-13,15.25-13h55.44c7.73,0,15,5.74,15,13L241,190.44C241,197.67,232.37,203.38,224.64,203.38Z"/><circle class="cls-3" cx="196.92" cy="253.45" r="43.12"/><rect class="cls-1" x="290.12" y="159.03" width="117.03" height="250.1" transform="translate(119.58 -102.94) rotate(20.21)"/><rect class="cls-4" x="299.59" y="167.18" width="102.11" height="222.87" transform="translate(117.82 -103.97) rotate(20.21)"/><rect class="cls-2" x="307.33" y="246.01" width="86.79" height="64.77" transform="translate(117.75 -104.01) rotate(20.21)"/><rect class="cls-2" x="282.58" y="313.08" width="86.79" height="65.15" transform="translate(139.46 -91.32) rotate(20.21)"/><rect class="cls-2" x="332.02" y="178.94" width="86.79" height="64.77" transform="translate(96.1 -116.67) rotate(20.21)"/><circle class="cls-4" cx="333.78" cy="265.07" r="9.2"/><circle class="cls-4" cx="367.97" cy="275.89" r="9.2"/><path class="cls-4" d="M332,306l7.48-20.33A6,6,0,0,0,336,278l-12.5-4.6a6,6,0,0,0-7.67,3.55L308.3,297.3Z"/><path class="cls-4" d="M368.82,319.57c.28-11.05.42-31.3.42-31.3l-.5-.19-9.25-3.4-.51-.19S346,300,339,308.6Z"/><rect class="cls-2" x="109.95" y="161.2" width="14.8" height="8.29" rx="1"/><rect class="cls-1" x="268.59" y="193.8" width="13.08" height="9.57" rx="2"/></g></g></svg>