<svg xmlns="http://www.w3.org/2000/svg" viewBox="0 0 512 512"><defs><style>.cls-1{fill:#4b77be;}.cls-2{fill:#3f4320;}.cls-3{fill:#b7b7b6;}.cls-4{fill:#939393;}.cls-5{fill:#ffc312;}.cls-6{font-size:98.6px;fill:#fff;font-family:Roboto-Medium, Roboto Medium;font-weight:500;}</style></defs><title>service_balie</title><g id="Layer_2" data-name="Layer 2"><g id="Layer_1-2" data-name="Layer 1"><circle class="cls-1" cx="256" cy="256" r="256"/><circle class="cls-2" cx="188.66" cy="149.04" r="28.56"/><path class="cls-3" d="M402.52,349.57a16.45,16.45,0,0,0,.21-2.55V247c0-8.09-5.81-14.65-13-14.65H131.62c-7.17,0-13,6.56-13,14.65V347a17.79,17.79,0,0,0,.2,2.55h8.67"/><path class="cls-4" d="M136.33,231.3s3.53,98.93,12.69,98.93,34.13-.34,34.13-.34v-99Z"/><path class="cls-2" d="M163.68,184.41h49.1a14.66,14.66,0,0,1,14.66,14.66V280a11,11,0,0,1-11,11H160a11,11,0,0,1-11-11V199.08a14.66,14.66,0,0,1,14.66-14.66Z"/><circle class="cls-2" cx="328.46" cy="147.33" r="28.56"/><rect class="cls-5" x="118.64" y="332.31" width="283.89" height="17.85"/><path class="cls-2" d="M370.65,231.3V214.25c0-16.88-12.76-30.69-28.37-30.69H315.49c-15.61,0-28.38,13.81-28.38,30.69V231.3Z"/><path class="cls-2" d="M173.48,242h31.21a10,10,0,0,1,10,10v89.59a7,7,0,0,1-7,7H170.51a7,7,0,0,1-7-7V252a10,10,0,0,1,10-10Z"/><text class="cls-6" transform="translate(240.74 317.39)">?</text></g></g></svg>