<svg xmlns="http://www.w3.org/2000/svg" viewBox="0 0 512 512"><defs><style>.cls-1{fill:#424242;}.cls-2{fill:#b2b2b2;}.cls-3{fill:#ededed;}.cls-4{font-size:43.53px;fill:#4b77be;font-family:Roboto-Bold, Roboto;font-weight:700;}</style></defs><title>shops</title><g id="Layer_2" data-name="Layer 2"><g id="Layer_1-2" data-name="Layer 1"><circle class="cls-1" cx="256" cy="256" r="256"/><path class="cls-2" d="M308.9,147,277.26,369.24l86.18-14.6a6.51,6.51,0,0,0,5.29-7.65l-38-194.79a6.5,6.5,0,0,0-6.38-5.25Z"/><path class="cls-3" d="M277.26,369.24,114.49,312.47a7.57,7.57,0,0,1-4.47-10.1l74-173.73a7.57,7.57,0,0,1,8.41-4.46L308.9,147Z"/><text class="cls-4" transform="matrix(0.96, 0.27, -0.27, 0.96, 154.66, 241.7)">SHOP</text><path class="cls-2" d="M221.61,141.25V103.34c0-8.86,6.77-16.06,15.09-16.06s15.1,7.2,15.1,16.06v37l10.08-2.61V103.34c0-14.77-11.29-26.79-25.18-26.79s-25.17,12-25.17,26.79v41.12Z"/><path class="cls-2" d="M262.17,150.53V112.62c0-8.86,6.77-16.06,15.09-16.06s15.09,7.2,15.09,16.06v27.19l10.09-2.6V112.62c0-14.77-11.3-26.79-25.18-26.79s-25.17,12-25.17,26.79v41.11Z"/></g></g></svg>