<svg xmlns="http://www.w3.org/2000/svg" viewBox="0 0 512 512"><defs><style>.cls-1{fill:#adadad;}.cls-2{fill:#fff;}.cls-3{fill:#3f4320;}.cls-4{fill:#46969e;}.cls-5{fill:#f4f422;}</style></defs><title>tram_perron</title><g id="Layer_2" data-name="Layer 2"><g id="Layer_1-2" data-name="Layer 1"><circle class="cls-1" cx="256" cy="256" r="256"/><polygon class="cls-2" points="297.8 333.61 300.11 343.3 213.6 344.29 216.19 334.35 297.8 333.61"/><polygon class="cls-2" points="302.49 364.81 305.02 374.49 209.92 375.49 212.77 365.54 302.49 364.81"/><polygon class="cls-2" points="306.65 394.24 309.42 403.92 205.72 404.92 208.82 394.97 306.65 394.24"/><polygon class="cls-2" points="175.85 404.92 190.55 329.2 204.74 331.19 190.43 404.92 175.85 404.92"/><polygon class="cls-2" points="324.7 404.92 310.39 331.19 324.58 329.2 339.28 404.92 324.7 404.92"/><path class="cls-3" d="M212,120.8h88a51.87,51.87,0,0,1,51.87,51.87V279.33a33.24,33.24,0,0,1-33.24,33.24H193.36a33.24,33.24,0,0,1-33.24-33.24V172.67A51.87,51.87,0,0,1,212,120.8Z"/><path class="cls-3" d="M249.75,125.79,209.36,65.22a7.52,7.52,0,0,1,6.26-11.69h80.76a7.52,7.52,0,0,1,6.26,11.69l-40.38,60.57A7.52,7.52,0,0,1,249.75,125.79ZM227,66.94l29.3,45.48,29.62-45.51Z"/><rect class="cls-4" x="179.6" y="165.85" width="70.31" height="57.16" rx="7.1"/><rect class="cls-4" x="262.09" y="165.85" width="70.31" height="57.16" rx="7.1"/><circle class="cls-5" cx="312" cy="262.28" r="13.81"/><circle class="cls-5" cx="203.87" cy="262.28" r="13.81"/><rect class="cls-2" x="225.19" y="137.22" width="61.61" height="13.75" rx="5"/></g></g></svg>