<svg xmlns="http://www.w3.org/2000/svg" viewBox="0 0 512 512"><defs><style>.cls-1{font-size:58.63px;font-family:MyriadPro-Regular, Myriad Pro;}.cls-2{letter-spacing:0.01em;}.cls-3{letter-spacing:0em;}.cls-4{letter-spacing:0.02em;}.cls-5{letter-spacing:0em;}.cls-6{letter-spacing:-0.01em;}.cls-7{fill:#f58320;}.cls-8{fill:#3f4320;}.cls-10,.cls-9{fill:#fff;}.cls-10{font-size:129.52px;font-family:Roboto-Medium, Roboto Medium;font-weight:500;}</style></defs><title>wc</title><g id="Layer_2" data-name="Layer 2"><g id="Layer_1-2" data-name="Layer 1"><text class="cls-1" transform="translate(120.71 183.56)"><tspan class="cls-2">S</tspan><tspan class="cls-3" x="29.26" y="0">e</tspan><tspan class="cls-4" x="58.63" y="0">r</tspan><tspan class="cls-5" x="79.27" y="0">vi</tspan><tspan class="cls-6" x="121.19" y="0">c</tspan><tspan x="147.11" y="0">ebalie</tspan></text><circle class="cls-7" cx="256" cy="256" r="256"/><circle class="cls-8" cx="187.85" cy="121.6" r="22.57"/><path class="cls-8" d="M171.18,149.56h32.66a14.66,14.66,0,0,1,14.66,14.66v58.56a11,11,0,0,1-11,11h-40a11,11,0,0,1-11-11V164.22A14.66,14.66,0,0,1,171.18,149.56Z"/><path class="cls-8" d="M177.69,195.08h21a9.71,9.71,0,0,1,9.71,9.71v67.69a6.82,6.82,0,0,1-6.82,6.82H174.8a6.82,6.82,0,0,1-6.82-6.82V204.79A9.71,9.71,0,0,1,177.69,195.08Z"/><circle class="cls-8" cx="319.78" cy="122.8" r="22.57"/><path class="cls-8" d="M311.27,196.28h17a7.88,7.88,0,0,1,7.88,7.88V275a5.53,5.53,0,0,1-5.53,5.53H308.92a5.53,5.53,0,0,1-5.53-5.53V204.16a7.88,7.88,0,0,1,7.88-7.88Z"/><path class="cls-8" d="M333.19,150.22H306.38s-32,88.84-30.61,88.84h88C365.2,239.06,333.19,150.22,333.19,150.22Z"/><rect class="cls-9" x="241.36" y="99.63" width="11.52" height="179.08"/><text class="cls-10" transform="translate(153.59 409.07)">WC</text></g></g></svg>