<svg xmlns="http://www.w3.org/2000/svg" viewBox="0 0 512 512"><defs><style>.cls-1{fill:#4b77be;}.cls-2{fill:#fff;}.cls-3{fill:#3f4320;}.cls-4{fill:#f4f4f4;}</style></defs><title>infoboard</title><g id="Layer_2" data-name="Layer 2"><g id="Layer_1-2" data-name="Layer 1"><circle class="cls-1" cx="256" cy="256" r="256"/><path class="cls-2" d="M396.26,149.35H153.34a2.65,2.65,0,0,1-2.64-2.65V133.19a2.65,2.65,0,0,0-2.65-2.64h-12a2.64,2.64,0,0,0-2.64,2.64V396.8a2.65,2.65,0,0,0,2.64,2.65h12a2.65,2.65,0,0,0,2.65-2.65V169.29a2.64,2.64,0,0,1,2.64-2.65H396.26a2.65,2.65,0,0,0,2.65-2.65V152A2.65,2.65,0,0,0,396.26,149.35Z"/><rect class="cls-3" x="169.52" y="180.87" width="229.61" height="108.13" rx="3"/><circle class="cls-2" cx="219.29" cy="232.79" r="31.56"/><circle class="cls-1" cx="219.21" cy="232.86" r="25.31"/><rect class="cls-2" x="216.65" y="224.28" width="4.22" height="24.7"/><rect class="cls-2" x="216.5" y="215.99" width="4.22" height="5.72"/><rect class="cls-4" x="277.65" y="203.61" width="80.42" height="8.48"/><rect class="cls-4" x="277.65" y="221.25" width="80.42" height="8.48"/><rect class="cls-4" x="277.54" y="237.54" width="80.42" height="8.48"/></g></g></svg>