<svg xmlns="http://www.w3.org/2000/svg" viewBox="0 0 512 512"><defs><style>.cls-1{fill:#adadad;}.cls-2{fill:#3f4320;}.cls-3{fill:#46969e;}.cls-4{fill:#f4f422;}.cls-5{fill:#fff;}</style></defs><title>trein_perron</title><g id="Layer_2" data-name="Layer 2"><g id="Layer_1-2" data-name="Layer 1"><circle class="cls-1" cx="256" cy="256" r="256"/><path class="cls-2" d="M175.62,102.87C179.68,85.35,194.36,73,211.21,73h89.58c16.85,0,31.53,12.31,35.59,29.83l30.78,132.85c5.74,24.78-11.76,48.76-35.59,48.76H180.43c-23.83,0-41.33-24-35.59-48.76Z"/><path class="cls-3" d="M207.88,121.48a12.08,12.08,0,0,1,11.78-9.39H293a12.08,12.08,0,0,1,11.78,9.39l14,61.3A12.08,12.08,0,0,1,307,197.55H205.68a12.08,12.08,0,0,1-11.78-14.77Z"/><circle class="cls-4" cx="313.94" cy="248.15" r="15.37"/><circle class="cls-4" cx="193.59" cy="248.15" r="15.37"/><polygon class="cls-5" points="305.13 310 307.94 323.93 202.32 325.36 205.49 311.06 305.13 310"/><polygon class="cls-5" points="310.85 354.85 313.94 368.78 197.82 370.21 201.3 355.91 310.85 354.85"/><polygon class="cls-5" points="315.94 397.16 319.31 411.09 192.69 412.52 196.49 398.22 315.94 397.16"/><polygon class="cls-5" points="156.23 412.52 174.17 303.65 191.5 306.51 174.03 412.52 156.23 412.52"/><polygon class="cls-5" points="337.97 412.52 320.5 306.51 337.83 303.65 355.77 412.52 337.97 412.52"/></g></g></svg>